<?xml version="1.0" encoding="UTF-8" standalone="no"?>
<svg
   id="emoji"
   viewBox="0 0 72 72"
   version="1.1"
   sodipodi:docname="1F517.svg"
   inkscape:version="1.2.2 (732a01da63, 2022-12-09, custom)"
   xmlns:inkscape="http://www.inkscape.org/namespaces/inkscape"
   xmlns:sodipodi="http://sodipodi.sourceforge.net/DTD/sodipodi-0.dtd"
   xmlns="http://www.w3.org/2000/svg"
   xmlns:svg="http://www.w3.org/2000/svg">
  <defs
     id="defs218" />
  <sodipodi:namedview
     id="namedview216"
     pagecolor="#ffffff"
     bordercolor="#666666"
     borderopacity="1.0"
     inkscape:showpageshadow="2"
     inkscape:pageopacity="0.0"
     inkscape:pagecheckerboard="0"
     inkscape:deskcolor="#d1d1d1"
     showgrid="false"
     inkscape:zoom="13.64995"
     inkscape:cx="36.776692"
     inkscape:cy="28.461643"
     inkscape:window-width="1920"
     inkscape:window-height="1175"
     inkscape:window-x="0"
     inkscape:window-y="0"
     inkscape:window-maximized="1"
     inkscape:current-layer="emoji" />
  <g
     id="color"
     transform="matrix(0.85426436,0.97584104,-0.97584104,0.85426436,40.098384,-32.954271)">
    <path
       fill="#d0cfce"
       stroke="none"
       d="m 36,8.1661 c -3.149,0 -4.9948,1.9679 -7,4 -1.8633,1.8883 -4,3.7366 -4,6.5405 v 17.9189 c 0,2.6406 1.3256,4.6911 3,6.5405 2.0169,2.2277 4.6806,4 8,4 6.0751,0 11,-4.7192 11,-10.5405 V 18.7066 c 0,-2.8667 -2.0623,-5.6404 -4,-7.5405 -1.9973,-1.9586 -3.9165,-3 -7,-3 z m 4,27.3704 c 0,2.5569 -1.7909,4.6296 -4,4.6296 -1.1563,0 -2.0027,-0.3975 -3,-1 -1.2121,-0.7323 -1.1074,-2.3926 -1,-3.6296 V 19.7957 c 0,-1.1549 -0.6042,-2.8187 0,-3.6296 0.7335,-0.9845 2.7886,-1 4,-1 1.3009,0 3.2695,-0.1131 4,1 0.51,0.7772 0,2.5784 0,3.6296 z"
       id="path198"
       style="fill:#ffffff;fill-opacity:1" />
    <path
       fill="#9b9b9a"
       stroke="none"
       d="M 32.0061,35.5372 C 32.122,33.1006 33.8658,31.1661 36,31.1661 c 1.2944,0 3.2689,0.8963 4,2 0.5166,0.7799 0,1.5709 0,2.6296 v 15.7407 c 0,1.173 0.6212,2.8138 0,3.6296 -0.733,0.9626 -2.8043,1 -4,1 -1.3246,0 -3.272,-0.852 -4,-2 -0.4861,-0.7666 0,-1.6059 0,-2.6296 v -5.8082 c -3,-0.4378 -7,-9.7281 -7,-9.7281 v 15.8956 c 0,5.6721 4.9249,10.2703 11,10.2703 6.0751,0 11,-4.5982 11,-10.2703 V 34.4364 c 0,-5.6722 -4.9249,-10.2703 -11,-10.2703 -1.6162,0 -3.151,0.3254 -4.5333,0.9099 z"
       id="path200"
       style="fill:#ffffff;fill-opacity:1" />
  </g>
  <g
     id="hair"
     transform="matrix(0.85426436,0.97584104,-0.97584104,0.85426436,40.098384,-32.954271)" />
  <g
     id="skin"
     transform="matrix(0.85426436,0.97584104,-0.97584104,0.85426436,40.098384,-32.954271)" />
  <g
     id="skin-shadow"
     transform="matrix(0.85426436,0.97584104,-0.97584104,0.85426436,40.098384,-32.954271)" />
  <g
     id="line"
     transform="matrix(0.85426436,0.97584104,-0.97584104,0.85426436,40.098384,-32.954271)">
    <path
       fill="none"
       stroke="#000000"
       stroke-linecap="round"
       stroke-linejoin="round"
       stroke-miterlimit="10"
       stroke-width="2"
       d="m 37.2318,41.0132 c -0.394,0.0998 -0.8067,0.1529 -1.2318,0.1529 -2.7614,0 -5,-2.2386 -5,-5 v -17 c 0,-2.7614 2.2386,-5 5,-5 2.7614,0 5,2.2386 5,5 v 3"
       id="path206" />
    <path
       fill="none"
       stroke="#000000"
       stroke-linecap="round"
       stroke-linejoin="round"
       stroke-miterlimit="10"
       stroke-width="2"
       d="m 37.3602,46.0744 c -0.4448,0.0605 -0.8988,0.0917 -1.3602,0.0917 -5.5228,0 -10,-4.4771 -10,-10 v -17 c 0,-5.5228 4.4772,-10 10,-10 5.5228,0 10,4.4772 10,10 v 7"
       id="path208" />
    <path
       fill="none"
       stroke="#000000"
       stroke-linecap="round"
       stroke-linejoin="round"
       stroke-miterlimit="10"
       stroke-width="2"
       d="M 34.7604,30.3209 C 35.1568,30.2198 35.5721,30.166 36,30.166 c 2.7614,0 5,2.2386 5,5 v 17 c 0,2.7614 -2.2386,5 -5,5 -2.7614,0 -5,-2.2386 -5,-5 v -3"
       id="path210" />
    <path
       fill="none"
       stroke="#000000"
       stroke-linecap="round"
       stroke-linejoin="round"
       stroke-miterlimit="10"
       stroke-width="2"
       d="m 34.7494,25.2435 c 0.4097,-0.0511 0.8271,-0.0774 1.2506,-0.0774 5.5228,0 10,4.4772 10,10 v 17 c 0,5.5229 -4.4772,10 -10,10 -5.5228,0 -10,-4.4771 -10,-10 v -6"
       id="path212" />
  </g>
</svg>
